<?xml version="1.0" encoding="UTF-8" standalone="no"?>
<!DOCTYPE svg PUBLIC "-//W3C//DTD SVG 1.1//EN" "http://www.w3.org/Graphics/SVG/1.1/DTD/svg11.dtd">
<svg width="100%" height="100%" viewBox="0 0 48 48" version="1.1" xmlns="http://www.w3.org/2000/svg" xmlns:xlink="http://www.w3.org/1999/xlink" xml:space="preserve" xmlns:serif="http://www.serif.com/" style="fill-rule:evenodd;clip-rule:evenodd;stroke-linejoin:round;stroke-miterlimit:2;">
    <path d="M19.76,47.037C19.76,47.037 19.76,47.037 19.76,47.037ZM13.277,37.958C13.689,40.166 15.074,44.948 19.519,47.001C15.952,46.456 12.882,45.218 10.756,43.619C8.219,41.712 6.894,39.26 6.894,36.716C6.894,34.172 8.219,31.719 10.756,29.812C11.208,29.472 11.703,29.149 12.236,28.845L12.222,28.825L12.324,28.966C13.209,30.151 14.492,31.006 15.848,31.577L15.891,31.595L16.794,31.928L17.688,32.179L18.637,32.368L19.463,32.465L20.356,32.492C20.725,32.487 21.066,32.478 21.39,32.466C19.109,32.698 17.066,33.291 15.488,34.16C14.196,34.873 13.125,35.63 13.125,36.716C13.125,36.75 13.126,36.783 13.128,36.817L13.169,37.089C13.148,37.001 13.135,36.912 13.129,36.82L13.113,36.802C13.113,36.802 13.141,37.196 13.255,37.837C13.262,37.877 13.269,37.917 13.277,37.958ZM12.172,28.753L12.19,28.779L12.172,28.753ZM12.124,28.681L12.14,28.706L12.124,28.681ZM11.997,28.482L11.998,28.484L11.997,28.482ZM21.16,22.124C21.16,22.124 21.281,22.07 21.281,22.07L22.074,21.729C23.786,21.027 26.647,20.597 28.166,20.431C29.172,20.321 31.186,20.732 31.186,20.732L31.296,20.694C29.121,21.702 26.539,22.302 23.759,22.302C22.87,22.302 22.002,22.241 21.16,22.124ZM31.296,20.694L31.296,20.694ZM32.55,20.042L32.544,20.046L32.554,20.04L32.55,20.042ZM14.649,19.972L14.605,20.004L14.649,19.972ZM24.685,16.057C23.953,16.203 23.155,16.385 22.28,16.605C19.997,17.179 17.979,17.968 16.31,18.906L15.586,19.336L14.738,19.907C13.881,19.388 13.111,18.801 12.445,18.162C10.422,16.219 9.298,13.789 9.298,11.198C9.298,8.606 10.422,6.177 12.445,4.234C15.004,1.776 19.103,0.093 23.759,0.093C27.116,0.093 30.185,0.969 32.594,2.379C32.898,2.263 33.214,2.156 33.542,2.059C36.379,1.218 39.424,1.222 41.417,1.701L41.137,6.31C39.848,6.017 38.152,5.825 36.544,5.957C37.632,7.537 38.219,9.325 38.219,11.198C38.219,13.499 37.333,15.672 35.717,17.491C35.119,17.07 33.761,16.444 32.396,16.015C31.026,15.584 29.457,15.36 26.857,15.693C26.534,15.776 26.202,15.845 25.862,15.901L26.857,15.693C28.043,15.391 29.108,14.916 29.985,14.298C31.142,13.484 31.988,12.439 31.988,11.198C31.988,9.956 31.142,8.912 29.985,8.097C28.394,6.977 26.184,6.325 23.759,6.325C21.333,6.325 19.123,6.977 17.532,8.097C16.375,8.912 15.529,9.956 15.529,11.198C15.529,12.439 16.375,13.484 17.532,14.298C19.123,15.419 21.333,16.071 23.759,16.071C24.121,16.071 24.479,16.056 24.831,16.028L24.685,16.057ZM35.682,17.53L35.68,17.533L35.699,17.512L35.682,17.53ZM25.802,15.911L25.861,15.902L24.897,16.022C25.204,15.996 25.506,15.959 25.802,15.911Z" style="fill:rgb(58,58,58);"/>
    <g transform="matrix(0.155784,0,0,0.155784,-75.046,-32.267)">
        <path d="M586.427,328.488C597.141,322.467 610.095,317.403 624.748,313.716C630.739,312.208 636.172,310.984 641.124,310.01C645.641,309.644 650,308.918 654.132,307.864C670.817,305.725 680.888,307.164 689.687,309.93C698.446,312.684 707.167,316.704 711.005,319.403C709.697,320.876 708.315,322.312 706.86,323.709C700.245,330.062 692.027,335.608 682.621,339.966C682.172,340.124 681.919,340.211 681.919,340.211C681.919,340.211 668.988,337.569 662.532,338.275C652.784,339.341 634.416,342.103 623.428,346.606C622.189,347.114 620.761,347.719 619.22,348.402L619.14,348.437L618.391,348.771L618.335,348.796L617.561,349.146L617.561,349.146C606.404,354.222 591.134,362.584 597.127,366.974C603.794,371.857 606.861,368.849 654.932,376.253L654.976,376.26L655.11,376.281L655.959,376.412L656.343,376.472L656.513,376.498L656.719,376.53L657.195,376.604L657.83,376.704L658.08,376.743L658.21,376.764L658.45,376.801L659.623,376.987L659.687,376.997C660.184,377.076 660.686,377.155 661.192,377.237L661.307,377.255L661.608,377.303L662.334,377.42L662.721,377.482L662.967,377.522L663.233,377.565L663.668,377.635L664.337,377.744L664.658,377.796L664.806,377.821C665.327,377.905 665.86,377.993 666.398,378.081C670.697,378.789 675.454,380.134 680.377,381.535L680.355,381.562C694.17,385.721 706.115,391.583 715.31,398.495C731.597,410.736 740.1,426.481 740.1,442.81C740.1,459.139 731.597,474.884 715.31,487.125C696.714,501.103 666.873,510.788 633.042,510.788C624.043,510.788 615.326,510.103 607.029,508.834C569.305,491.412 565.907,443.363 565.907,443.363L566.006,443.48C566.431,450.093 573.123,454.79 581.148,459.213C581.321,459.308 581.494,459.403 581.669,459.497C582.502,460.123 583.273,460.625 583.949,460.955C589.407,463.623 598.856,467.004 607.227,468.326C615.264,469.931 623.968,470.788 633.042,470.788C653.275,470.788 671.665,466.527 684.936,459.213C693.23,454.642 700.1,449.779 700.1,442.81C700.1,435.868 693.282,431.015 685.03,426.459C680.27,423.75 674.62,421.367 668.495,419.671C659.058,416.868 648.348,415.199 636.971,414.886C631.005,414.816 625.702,415.237 619.326,415.502L619.033,415.532C616.958,415.607 614.767,415.668 612.398,415.695L612.352,415.695L611.56,415.703C611.42,415.704 611.28,415.705 611.138,415.704L611.094,415.704L611.008,415.704L610.835,415.703L610.702,415.702L610.623,415.702L610.561,415.701L610.468,415.7L610.225,415.696L610.148,415.695L610.126,415.694C609.982,415.691 609.837,415.688 609.691,415.684L609.667,415.683L609.585,415.681L609.348,415.673L609.247,415.67L609.181,415.668L609.101,415.664L608.969,415.66L608.782,415.651L608.691,415.648L608.648,415.646C608.499,415.639 608.35,415.631 608.199,415.624L607.816,415.602L607.746,415.598L607.697,415.595L607.605,415.589L607.426,415.578L607.28,415.567L607.193,415.562L607.129,415.557L607.034,415.551L606.765,415.53L606.686,415.524L606.665,415.523C606.512,415.511 606.358,415.498 606.203,415.485L606.174,415.483L606.083,415.475L605.843,415.453L605.732,415.443L605.658,415.436L605.575,415.428L605.441,415.416L605.236,415.395L605.139,415.386L605.095,415.381C604.938,415.365 604.78,415.348 604.623,415.331L604.616,415.331L604.572,415.326L604.222,415.287L604.145,415.277L604.089,415.271L603.991,415.259L603.812,415.238L603.653,415.218L603.559,415.207L603.493,415.199L603.399,415.187L603.107,415.149L603.026,415.138L603.007,415.136C602.847,415.115 602.687,415.093 602.525,415.07L602.489,415.065L602.389,415.051L602.151,415.017L602.031,414.999L601.95,414.988L601.863,414.974L601.731,414.955L601.513,414.921L601.408,414.905L601.364,414.898C601.202,414.873 601.039,414.847 600.875,414.821L600.863,414.819L600.795,414.807L600.461,414.752L600.378,414.738L600.315,414.727L600.211,414.709L600.035,414.679L599.868,414.649L599.765,414.631L599.697,414.619L599.607,414.603L599.298,414.546L599.212,414.531L599.194,414.527C599.03,414.496 598.866,414.465 598.7,414.433L598.658,414.425L598.545,414.403L598.316,414.358L598.191,414.333L598.101,414.315L598.009,414.296L597.882,414.271L597.657,414.224L597.542,414.2L597.497,414.191C597.331,414.156 597.165,414.121 597,414.085L596.981,414.081L596.888,414.061L596.577,413.992L596.491,413.973L596.419,413.957L596.307,413.932L596.139,413.894L595.968,413.854L595.855,413.828L595.784,413.811L595.701,413.792L595.385,413.717L595.289,413.694L595.271,413.69C595.104,413.65 594.938,413.609 594.773,413.568L594.722,413.556L594.597,413.525L594.381,413.471L594.255,413.438L594.154,413.413L594.058,413.388L593.94,413.358L593.714,413.298L593.585,413.265L593.538,413.252C593.372,413.208 593.206,413.164 593.041,413.119L593.015,413.112L592.895,413.079L592.612,413.001L592.526,412.977L592.444,412.954L592.324,412.92L592.169,412.877L591.999,412.828L591.872,412.792L591.798,412.77L591.725,412.749L591.412,412.657L591.3,412.624L591.281,412.619C591.116,412.57 590.951,412.52 590.787,412.47L590.727,412.452L590.589,412.409L590.391,412.349L590.267,412.31L590.154,412.275L590.053,412.242L589.946,412.209L589.726,412.139L589.581,412.092L589.532,412.077C589.37,412.024 589.207,411.971 589.043,411.917L589.008,411.905L588.863,411.857L588.612,411.773L588.527,411.744L588.434,411.713L588.307,411.669L588.167,411.622L588.002,411.564L587.861,411.516L587.784,411.489L587.722,411.467L587.424,411.361L587.289,411.314L587.19,411.278L586.833,411.149L586.786,411.132L586.717,411.107L586.566,411.051L586.389,410.986L586.27,410.941L586.145,410.895L586.039,410.854L585.946,410.819L585.737,410.739L585.574,410.677L585.524,410.658C585.365,410.596 585.206,410.534 585.049,410.472L585.004,410.455L584.837,410.388L584.619,410.301L584.538,410.269L584.435,410.227L584.301,410.173L584.177,410.122L584.022,410.058L583.867,409.995L583.787,409.961L583.737,409.941L583.462,409.825C574.76,406.157 566.522,400.667 560.842,393.063L560.767,392.964L560.694,392.864C557.05,387.924 554.483,382.1 553.559,375.314C552.818,369.868 553.575,364.452 555.669,359.194L555.72,359.067L555.727,359.05L555.752,358.986L555.808,358.85L555.843,358.765L555.868,358.705L555.913,358.597L555.952,358.505L555.969,358.462L556.011,358.364C556.112,358.129 556.215,357.893 556.321,357.658L556.366,357.557L556.383,357.519L556.423,357.432L556.475,357.319L556.504,357.256L556.542,357.176L556.602,357.045L556.635,356.977L556.645,356.956L556.648,356.95C560.387,349.066 567.135,341.576 576.339,334.91L576.339,334.91L576.538,334.766L576.592,334.728L576.611,334.714C576.739,334.622 576.867,334.53 576.996,334.439L577.047,334.402L577.105,334.361L577.206,334.29L577.497,334.084L577.506,334.078L577.54,334.054L577.792,333.879L577.909,333.798L577.97,333.755L578.017,333.723C578.148,333.632 578.28,333.542 578.412,333.451L578.437,333.434L578.496,333.394L578.683,333.267L578.845,333.157L578.908,333.114L578.94,333.092C579.074,333.002 579.208,332.912 579.343,332.822L579.382,332.796L579.445,332.754L579.587,332.659L579.814,332.509L579.861,332.478L579.892,332.458L579.953,332.419L580.343,332.163L580.441,332.1L580.506,332.057L580.618,331.985L580.83,331.848L581.019,331.728L581.126,331.659L581.204,331.609L581.32,331.535L581.651,331.327L581.753,331.262L581.779,331.246C581.969,331.126 582.16,331.007 582.353,330.889L582.385,330.868L582.5,330.798L582.813,330.605L582.936,330.531L583.023,330.477L583.139,330.407L583.318,330.298L583.54,330.165L583.668,330.088L583.738,330.046L583.827,329.993L584.239,329.748L584.318,329.701L584.331,329.693C584.526,329.578 584.721,329.464 584.918,329.35L584.975,329.317L585.117,329.235L585.375,329.085L585.524,329L585.637,328.935L585.752,328.87L585.899,328.785L586.156,328.64L586.305,328.555L586.366,328.521L586.426,328.487L586.427,328.488Z" style="fill:none;"/>
        <clipPath id="_clip1">
            <path d="M586.427,328.488C597.141,322.467 610.095,317.403 624.748,313.716C630.739,312.208 636.172,310.984 641.124,310.01C645.641,309.644 650,308.918 654.132,307.864C670.817,305.725 680.888,307.164 689.687,309.93C698.446,312.684 707.167,316.704 711.005,319.403C709.697,320.876 708.315,322.312 706.86,323.709C700.245,330.062 692.027,335.608 682.621,339.966C682.172,340.124 681.919,340.211 681.919,340.211C681.919,340.211 668.988,337.569 662.532,338.275C652.784,339.341 634.416,342.103 623.428,346.606C622.189,347.114 620.761,347.719 619.22,348.402L619.14,348.437L618.391,348.771L618.335,348.796L617.561,349.146L617.561,349.146C606.404,354.222 591.134,362.584 597.127,366.974C603.794,371.857 606.861,368.849 654.932,376.253L654.976,376.26L655.11,376.281L655.959,376.412L656.343,376.472L656.513,376.498L656.719,376.53L657.195,376.604L657.83,376.704L658.08,376.743L658.21,376.764L658.45,376.801L659.623,376.987L659.687,376.997C660.184,377.076 660.686,377.155 661.192,377.237L661.307,377.255L661.608,377.303L662.334,377.42L662.721,377.482L662.967,377.522L663.233,377.565L663.668,377.635L664.337,377.744L664.658,377.796L664.806,377.821C665.327,377.905 665.86,377.993 666.398,378.081C670.697,378.789 675.454,380.134 680.377,381.535L680.355,381.562C694.17,385.721 706.115,391.583 715.31,398.495C731.597,410.736 740.1,426.481 740.1,442.81C740.1,459.139 731.597,474.884 715.31,487.125C696.714,501.103 666.873,510.788 633.042,510.788C624.043,510.788 615.326,510.103 607.029,508.834C569.305,491.412 565.907,443.363 565.907,443.363L566.006,443.48C566.431,450.093 573.123,454.79 581.148,459.213C581.321,459.308 581.494,459.403 581.669,459.497C582.502,460.123 583.273,460.625 583.949,460.955C589.407,463.623 598.856,467.004 607.227,468.326C615.264,469.931 623.968,470.788 633.042,470.788C653.275,470.788 671.665,466.527 684.936,459.213C693.23,454.642 700.1,449.779 700.1,442.81C700.1,435.868 693.282,431.015 685.03,426.459C680.27,423.75 674.62,421.367 668.495,419.671C659.058,416.868 648.348,415.199 636.971,414.886C631.005,414.816 625.702,415.237 619.326,415.502L619.033,415.532C616.958,415.607 614.767,415.668 612.398,415.695L612.352,415.695L611.56,415.703C611.42,415.704 611.28,415.705 611.138,415.704L611.094,415.704L611.008,415.704L610.835,415.703L610.702,415.702L610.623,415.702L610.561,415.701L610.468,415.7L610.225,415.696L610.148,415.695L610.126,415.694C609.982,415.691 609.837,415.688 609.691,415.684L609.667,415.683L609.585,415.681L609.348,415.673L609.247,415.67L609.181,415.668L609.101,415.664L608.969,415.66L608.782,415.651L608.691,415.648L608.648,415.646C608.499,415.639 608.35,415.631 608.199,415.624L607.816,415.602L607.746,415.598L607.697,415.595L607.605,415.589L607.426,415.578L607.28,415.567L607.193,415.562L607.129,415.557L607.034,415.551L606.765,415.53L606.686,415.524L606.665,415.523C606.512,415.511 606.358,415.498 606.203,415.485L606.174,415.483L606.083,415.475L605.843,415.453L605.732,415.443L605.658,415.436L605.575,415.428L605.441,415.416L605.236,415.395L605.139,415.386L605.095,415.381C604.938,415.365 604.78,415.348 604.623,415.331L604.616,415.331L604.572,415.326L604.222,415.287L604.145,415.277L604.089,415.271L603.991,415.259L603.812,415.238L603.653,415.218L603.559,415.207L603.493,415.199L603.399,415.187L603.107,415.149L603.026,415.138L603.007,415.136C602.847,415.115 602.687,415.093 602.525,415.07L602.489,415.065L602.389,415.051L602.151,415.017L602.031,414.999L601.95,414.988L601.863,414.974L601.731,414.955L601.513,414.921L601.408,414.905L601.364,414.898C601.202,414.873 601.039,414.847 600.875,414.821L600.863,414.819L600.795,414.807L600.461,414.752L600.378,414.738L600.315,414.727L600.211,414.709L600.035,414.679L599.868,414.649L599.765,414.631L599.697,414.619L599.607,414.603L599.298,414.546L599.212,414.531L599.194,414.527C599.03,414.496 598.866,414.465 598.7,414.433L598.658,414.425L598.545,414.403L598.316,414.358L598.191,414.333L598.101,414.315L598.009,414.296L597.882,414.271L597.657,414.224L597.542,414.2L597.497,414.191C597.331,414.156 597.165,414.121 597,414.085L596.981,414.081L596.888,414.061L596.577,413.992L596.491,413.973L596.419,413.957L596.307,413.932L596.139,413.894L595.968,413.854L595.855,413.828L595.784,413.811L595.701,413.792L595.385,413.717L595.289,413.694L595.271,413.69C595.104,413.65 594.938,413.609 594.773,413.568L594.722,413.556L594.597,413.525L594.381,413.471L594.255,413.438L594.154,413.413L594.058,413.388L593.94,413.358L593.714,413.298L593.585,413.265L593.538,413.252C593.372,413.208 593.206,413.164 593.041,413.119L593.015,413.112L592.895,413.079L592.612,413.001L592.526,412.977L592.444,412.954L592.324,412.92L592.169,412.877L591.999,412.828L591.872,412.792L591.798,412.77L591.725,412.749L591.412,412.657L591.3,412.624L591.281,412.619C591.116,412.57 590.951,412.52 590.787,412.47L590.727,412.452L590.589,412.409L590.391,412.349L590.267,412.31L590.154,412.275L590.053,412.242L589.946,412.209L589.726,412.139L589.581,412.092L589.532,412.077C589.37,412.024 589.207,411.971 589.043,411.917L589.008,411.905L588.863,411.857L588.612,411.773L588.527,411.744L588.434,411.713L588.307,411.669L588.167,411.622L588.002,411.564L587.861,411.516L587.784,411.489L587.722,411.467L587.424,411.361L587.289,411.314L587.19,411.278L586.833,411.149L586.786,411.132L586.717,411.107L586.566,411.051L586.389,410.986L586.27,410.941L586.145,410.895L586.039,410.854L585.946,410.819L585.737,410.739L585.574,410.677L585.524,410.658C585.365,410.596 585.206,410.534 585.049,410.472L585.004,410.455L584.837,410.388L584.619,410.301L584.538,410.269L584.435,410.227L584.301,410.173L584.177,410.122L584.022,410.058L583.867,409.995L583.787,409.961L583.737,409.941L583.462,409.825C574.76,406.157 566.522,400.667 560.842,393.063L560.767,392.964L560.694,392.864C557.05,387.924 554.483,382.1 553.559,375.314C552.818,369.868 553.575,364.452 555.669,359.194L555.72,359.067L555.727,359.05L555.752,358.986L555.808,358.85L555.843,358.765L555.868,358.705L555.913,358.597L555.952,358.505L555.969,358.462L556.011,358.364C556.112,358.129 556.215,357.893 556.321,357.658L556.366,357.557L556.383,357.519L556.423,357.432L556.475,357.319L556.504,357.256L556.542,357.176L556.602,357.045L556.635,356.977L556.645,356.956L556.648,356.95C560.387,349.066 567.135,341.576 576.339,334.91L576.339,334.91L576.538,334.766L576.592,334.728L576.611,334.714C576.739,334.622 576.867,334.53 576.996,334.439L577.047,334.402L577.105,334.361L577.206,334.29L577.497,334.084L577.506,334.078L577.54,334.054L577.792,333.879L577.909,333.798L577.97,333.755L578.017,333.723C578.148,333.632 578.28,333.542 578.412,333.451L578.437,333.434L578.496,333.394L578.683,333.267L578.845,333.157L578.908,333.114L578.94,333.092C579.074,333.002 579.208,332.912 579.343,332.822L579.382,332.796L579.445,332.754L579.587,332.659L579.814,332.509L579.861,332.478L579.892,332.458L579.953,332.419L580.343,332.163L580.441,332.1L580.506,332.057L580.618,331.985L580.83,331.848L581.019,331.728L581.126,331.659L581.204,331.609L581.32,331.535L581.651,331.327L581.753,331.262L581.779,331.246C581.969,331.126 582.16,331.007 582.353,330.889L582.385,330.868L582.5,330.798L582.813,330.605L582.936,330.531L583.023,330.477L583.139,330.407L583.318,330.298L583.54,330.165L583.668,330.088L583.738,330.046L583.827,329.993L584.239,329.748L584.318,329.701L584.331,329.693C584.526,329.578 584.721,329.464 584.918,329.35L584.975,329.317L585.117,329.235L585.375,329.085L585.524,329L585.637,328.935L585.752,328.87L585.899,328.785L586.156,328.64L586.305,328.555L586.366,328.521L586.426,328.487L586.427,328.488Z"/>
        </clipPath>
        <g clip-path="url(#_clip1)">
            <g transform="matrix(0.954923,-0.296854,0.296854,0.954923,269.738,53.6848)">
                <g transform="matrix(6.41914,0,0,6.41914,101.44,225.874)">
                    <rect x="3.229" y="18.193" width="40.766" height="0.481" style="fill:rgb(86,86,86);"/>
                </g>
                <g transform="matrix(6.41914,0,0,6.41914,101.44,232.293)">
                    <rect x="3.229" y="18.193" width="40.766" height="0.481" style="fill:rgb(86,86,86);"/>
                </g>
                <g transform="matrix(6.41914,0,0,6.41914,101.44,238.712)">
                    <rect x="3.229" y="18.193" width="40.766" height="0.481" style="fill:rgb(86,86,86);"/>
                </g>
                <g transform="matrix(6.41914,0,0,6.41914,101.44,245.132)">
                    <rect x="3.229" y="18.193" width="40.766" height="0.481" style="fill:rgb(86,86,86);"/>
                </g>
                <g transform="matrix(6.41914,0,0,6.41914,101.44,251.551)">
                    <rect x="3.229" y="18.193" width="40.766" height="0.481" style="fill:rgb(86,86,86);"/>
                </g>
                <g transform="matrix(6.41914,0,0,6.41914,101.44,257.97)">
                    <rect x="3.229" y="18.193" width="40.766" height="0.481" style="fill:rgb(86,86,86);"/>
                </g>
                <g transform="matrix(6.41914,0,0,6.41914,101.44,264.389)">
                    <rect x="3.229" y="18.193" width="40.766" height="0.481" style="fill:rgb(86,86,86);"/>
                </g>
                <g transform="matrix(6.41914,0,0,6.41914,101.44,270.808)">
                    <rect x="3.229" y="18.193" width="40.766" height="0.481" style="fill:rgb(86,86,86);"/>
                </g>
                <g transform="matrix(6.41914,0,0,6.41914,101.44,277.227)">
                    <rect x="3.229" y="18.193" width="40.766" height="0.481" style="fill:rgb(86,86,86);"/>
                </g>
                <g transform="matrix(6.41914,0,0,6.41914,101.44,283.646)">
                    <rect x="3.229" y="18.193" width="40.766" height="0.481" style="fill:rgb(86,86,86);"/>
                </g>
                <g transform="matrix(6.41914,0,0,6.41914,101.44,290.066)">
                    <rect x="3.229" y="18.193" width="40.766" height="0.481" style="fill:rgb(86,86,86);"/>
                </g>
                <g transform="matrix(6.41914,0,0,6.41914,101.44,296.485)">
                    <rect x="3.229" y="18.193" width="40.766" height="0.481" style="fill:rgb(86,86,86);"/>
                </g>
                <g transform="matrix(6.41914,0,0,6.41914,101.44,302.904)">
                    <rect x="3.229" y="18.193" width="40.766" height="0.481" style="fill:rgb(86,86,86);"/>
                </g>
                <g transform="matrix(6.41914,0,0,6.41914,101.44,309.323)">
                    <rect x="3.229" y="18.193" width="40.766" height="0.481" style="fill:rgb(86,86,86);"/>
                </g>
                <g transform="matrix(6.41914,0,0,6.41914,101.44,315.742)">
                    <rect x="3.229" y="18.193" width="40.766" height="0.481" style="fill:rgb(86,86,86);"/>
                </g>
                <g transform="matrix(6.41914,0,0,6.41914,101.44,322.161)">
                    <rect x="3.229" y="18.193" width="40.766" height="0.481" style="fill:rgb(86,86,86);"/>
                </g>
                <g transform="matrix(6.41914,0,0,6.41914,101.44,328.58)">
                    <rect x="3.229" y="18.193" width="40.766" height="0.481" style="fill:rgb(86,86,86);"/>
                </g>
                <g transform="matrix(6.41914,0,0,6.41914,101.44,335)">
                    <rect x="3.229" y="18.193" width="40.766" height="0.481" style="fill:rgb(86,86,86);"/>
                </g>
                <g transform="matrix(6.41914,0,0,6.41914,101.44,341.419)">
                    <rect x="3.229" y="18.193" width="40.766" height="0.481" style="fill:rgb(86,86,86);"/>
                </g>
                <g transform="matrix(6.41914,0,0,6.41914,101.44,347.838)">
                    <rect x="3.229" y="18.193" width="40.766" height="0.481" style="fill:rgb(86,86,86);"/>
                </g>
                <g transform="matrix(6.41914,0,0,6.41914,101.44,354.257)">
                    <rect x="3.229" y="18.193" width="40.766" height="0.481" style="fill:rgb(86,86,86);"/>
                </g>
                <g transform="matrix(6.41914,0,0,6.41914,101.44,360.676)">
                    <rect x="3.229" y="18.193" width="40.766" height="0.481" style="fill:rgb(86,86,86);"/>
                </g>
                <g transform="matrix(6.41914,0,0,6.41914,101.44,367.095)">
                    <rect x="3.229" y="18.193" width="40.766" height="0.481" style="fill:rgb(86,86,86);"/>
                </g>
                <g transform="matrix(6.41914,0,0,6.41914,101.44,373.514)">
                    <rect x="3.229" y="18.193" width="40.766" height="0.481" style="fill:rgb(86,86,86);"/>
                </g>
                <g transform="matrix(6.41914,0,0,6.41914,101.44,379.934)">
                    <rect x="3.229" y="18.193" width="40.766" height="0.481" style="fill:rgb(86,86,86);"/>
                </g>
                <g transform="matrix(6.41914,0,0,6.41914,101.44,386.353)">
                    <rect x="3.229" y="18.193" width="40.766" height="0.481" style="fill:rgb(86,86,86);"/>
                </g>
                <g transform="matrix(6.41914,0,0,6.41914,101.44,392.772)">
                    <rect x="3.229" y="18.193" width="40.766" height="0.481" style="fill:rgb(86,86,86);"/>
                </g>
                <g transform="matrix(6.41914,0,0,6.41914,101.44,399.191)">
                    <rect x="3.229" y="18.193" width="40.766" height="0.481" style="fill:rgb(86,86,86);"/>
                </g>
                <g transform="matrix(6.41914,0,0,6.41914,101.44,405.61)">
                    <rect x="3.229" y="18.193" width="40.766" height="0.481" style="fill:rgb(86,86,86);"/>
                </g>
                <g transform="matrix(6.41914,0,0,6.41914,101.44,412.029)">
                    <rect x="3.229" y="18.193" width="40.766" height="0.481" style="fill:rgb(86,86,86);"/>
                </g>
                <g transform="matrix(6.41914,0,0,6.41914,101.44,418.448)">
                    <rect x="3.229" y="18.193" width="40.766" height="0.481" style="fill:rgb(86,86,86);"/>
                </g>
                <g transform="matrix(6.41914,0,0,6.41914,101.44,424.868)">
                    <rect x="3.229" y="18.193" width="40.766" height="0.481" style="fill:rgb(86,86,86);"/>
                </g>
                <g transform="matrix(6.41914,0,0,6.41914,101.44,431.287)">
                    <rect x="3.229" y="18.193" width="40.766" height="0.481" style="fill:rgb(86,86,86);"/>
                </g>
                <g transform="matrix(6.41914,0,0,6.41914,101.44,437.706)">
                    <rect x="3.229" y="18.193" width="40.766" height="0.481" style="fill:rgb(86,86,86);"/>
                </g>
            </g>
        </g>
    </g>
</svg>
